<?xml version="1.0" encoding="UTF-8"?>
<svg version="1.1" xmlns="http://www.w3.org/2000/svg" width="608" height="456">
<path d="M0 0 C200.64 0 401.28 0 608 0 C608 150.48 608 300.96 608 456 C407.36 456 206.72 456 0 456 C0 305.52 0 155.04 0 0 Z " fill="#FCFCFC" transform="translate(0,0)"/>
<path d="M0 0 C0.90179993 0.00343414 1.80359985 0.00686829 2.73272705 0.01040649 C39.52979755 0.17449373 76.08370449 6.16886068 110.83007812 18.55224609 C112.91044511 19.28447378 114.99984454 19.98326078 117.09375 20.67578125 C135.79196197 26.88654418 153.90625929 34.03332205 171.8125 42.25 C172.72483398 42.66362793 173.63716797 43.07725586 174.57714844 43.50341797 C188.78537285 49.96193845 202.35927814 57.34715722 215.8125 65.25 C216.7907373 65.82298828 217.76897461 66.39597656 218.77685547 66.98632812 C231.97254619 74.75488145 244.5891485 83.02892888 256.8125 92.25 C257.40708008 92.6929541 258.00166016 93.1359082 258.61425781 93.59228516 C278.04229424 108.06600548 297.49128175 124.50374164 312.6015625 143.484375 C314.04524345 145.29025153 315.51836137 147.07308923 317.0234375 148.828125 C335.15970932 170.08256285 349.80409577 197.6930864 347.8125 226.25 C345.89649311 239.9233219 339.21233329 253.13085835 328.8125 262.25 C304.8861285 280.23865339 274.24589268 286.29154863 244.8125 285.25 C244.8125 284.92 244.8125 284.59 244.8125 284.25 C245.40973877 284.16548584 246.00697754 284.08097168 246.62231445 283.99389648 C270.09038453 280.56758967 295.76216645 274.51091286 310.8828125 254.51171875 C320.33599097 240.2132919 321.90944177 224.00784172 318.61328125 207.34765625 C312.77098904 184.74796003 299.54139366 165.50723276 283.8984375 148.51953125 C281.97095324 146.4223995 280.10488643 144.28623645 278.25 142.125 C272.27770049 135.28575379 265.76523005 129.08026736 258.8125 123.25 C258.27657227 122.80027832 257.74064453 122.35055664 257.18847656 121.88720703 C217.09047146 88.39268627 171.46921123 64.66898486 122.8125 46.25 C121.82588379 45.87327148 120.83926758 45.49654297 119.82275391 45.10839844 C98.82255036 37.1505091 77.01468259 31.98604557 54.8359375 28.61962891 C52.8125 28.25 52.8125 28.25 49.8125 27.25 C36.86525113 25.51329231 23.97457159 24.90277863 10.92089844 24.93432617 C8.18124252 24.93750727 5.44265063 24.91381186 2.703125 24.88867188 C-12.01609415 24.83503869 -26.60242527 26.0334682 -40.5625 31.0625 C-41.30306641 31.32111816 -42.04363281 31.57973633 -42.80664062 31.84619141 C-61.31262817 38.48246105 -73.88462253 48.09762991 -82.671875 65.65234375 C-89.29004244 81.36196284 -86.77352886 97.82273009 -80.62109375 113.26171875 C-78.54525981 119.17335062 -78.54525981 119.17335062 -75.1875 124.25 C-75.08203857 123.48333008 -74.97657715 122.71666016 -74.86791992 121.92675781 C-74.38254454 118.44933156 -73.87898902 114.97477522 -73.375 111.5 C-73.20935547 110.2934375 -73.04371094 109.086875 -72.87304688 107.84375 C-72.6168457 106.10351562 -72.6168457 106.10351562 -72.35546875 104.328125 C-72.20360107 103.25981445 -72.0517334 102.19150391 -71.89526367 101.09082031 C-71.15743827 98.12933829 -70.18692322 96.52000385 -68.1875 94.25 C-65.79036209 94.61627739 -64.53820374 94.81285368 -62.98999023 96.74267578 C-62.66200439 97.3870459 -62.33401855 98.03141602 -61.99609375 98.6953125 C-61.4244751 99.79673584 -61.4244751 99.79673584 -60.84130859 100.92041016 C-60.23923584 102.13543213 -60.23923584 102.13543213 -59.625 103.375 C-58.97265381 104.65383057 -58.97265381 104.65383057 -58.30712891 105.95849609 C-54.16072928 114.14900661 -50.21446155 122.43812435 -46.28515625 130.734375 C-42.73618526 138.22032233 -39.11893078 145.67270662 -35.5 153.125 C-34.82013497 154.52546484 -34.14028479 155.92593688 -33.46044922 157.32641602 C-32.42439156 159.46066347 -31.38828798 161.59488852 -30.35198975 163.72901917 C-27.85943467 168.86292395 -25.37209486 173.99933532 -22.88671875 179.13671875 C-21.82716825 181.32581954 -20.76752826 183.51487698 -19.70785522 185.70391846 C-19.04297895 187.07789666 -18.37843211 188.45203435 -17.71426392 189.82635498 C-12.95389508 199.67584868 -8.10013562 209.47556582 -3.1875 219.25 C3.69884645 205.09395313 10.54117324 190.92488406 17.125 176.625 C22.39772344 165.18106213 27.86669627 153.84264138 33.40109253 142.52359009 C39.02687038 131.01411952 44.49901126 119.4442474 49.79101562 107.77734375 C50.28021484 106.70742187 50.76941406 105.6375 51.2734375 104.53515625 C51.90451416 103.14115601 51.90451416 103.14115601 52.54833984 101.71899414 C53.76917263 99.33462142 55.13803159 97.33439924 56.8125 95.25 C58.4625 95.58 60.1125 95.91 61.8125 96.25 C64.48197403 106.5930652 65.97730482 116.91981851 67.3125 127.5 C68.45743123 136.49113202 69.61296353 145.45584031 71.2578125 154.37109375 C73.10804904 164.44226255 74.40072408 174.5854682 75.74499512 184.73422241 C78.82178582 207.88611392 78.82178582 207.88611392 82.5625 230.9375 C82.7486084 232.00782471 82.9347168 233.07814941 83.12646484 234.1809082 C84.41393 243.83800172 84.41393 243.83800172 89.51922607 251.47099304 C90.14806702 251.80113907 90.77690796 252.1312851 91.42480469 252.47143555 C92.54274414 253.05836182 93.66068359 253.64528809 94.8125 254.25 C94.75117231 245.11343788 94.67398268 235.97718521 94.57678509 226.8409338 C94.53214082 222.5981583 94.49287181 218.3554775 94.46606445 214.11254883 C94.43997187 210.01452272 94.39952793 205.91686221 94.34931374 201.81906319 C94.33268514 200.25909551 94.32114597 198.69906466 94.31488609 197.13902092 C94.3052009 194.94638004 94.27709143 192.75466605 94.24487305 190.56225586 C94.23376999 189.31649277 94.22266693 188.07072968 94.21122742 186.78721619 C93.73778988 182.58722682 92.80134966 179.97380017 90.8125 176.25 C87.26327545 174.31405934 83.77419727 173.04233945 79.8125 172.25 C79.8125 171.26 79.8125 170.27 79.8125 169.25 C98.2925 169.25 116.7725 169.25 135.8125 169.25 C135.8125 170.24 135.8125 171.23 135.8125 172.25 C135.19761719 172.38277344 134.58273437 172.51554688 133.94921875 172.65234375 C133.14097656 172.82894531 132.33273437 173.00554687 131.5 173.1875 C130.69949219 173.36152344 129.89898437 173.53554687 129.07421875 173.71484375 C126.667099 174.24886159 126.667099 174.24886159 123.8125 175.25 C122.26302759 183.21862111 121.53207197 190.81110188 121.6171875 198.921875 C121.61920166 199.85338379 121.62121582 200.78489258 121.62329102 201.74462891 C121.63360957 205.16313737 121.66152971 208.58157462 121.6875 212 C121.72875 219.6725 121.77 227.345 121.8125 235.25 C149.2025 235.58 176.5925 235.91 204.8125 236.25 C204.709375 227.278125 204.60625 218.30625 204.5 209.0625 C204.46265747 204.82369995 204.46265747 204.82369995 204.42456055 200.49926758 C204.39227146 198.25600517 204.35889787 196.01275799 204.32421875 193.76953125 C204.31485291 192.02657776 204.31485291 192.02657776 204.30529785 190.24841309 C204.28535767 189.13236694 204.26541748 188.0163208 204.24487305 186.86645508 C204.23376999 185.90048904 204.22266693 184.93452301 204.21122742 183.93928528 C203.74006156 180.76142654 202.66162611 178.85443545 200.8125 176.25 C197.34217053 173.8079163 192.88554608 173.20037742 188.8125 172.25 C189.1425 170.93 189.4725 169.61 189.8125 168.25 C208.15437181 168.02692318 226.48171822 168.68968995 244.8125 169.25 C244.8125 170.24 244.8125 171.23 244.8125 172.25 C244.19761719 172.40855469 243.58273437 172.56710938 242.94921875 172.73046875 C242.14097656 172.96378906 241.33273437 173.19710937 240.5 173.4375 C239.69949219 173.65792969 238.89898437 173.87835938 238.07421875 174.10546875 C234.94524246 175.68887126 234.28098958 177.04899965 232.8125 180.25 C232.36586261 183.40690438 232.3749866 186.53744569 232.38012695 189.72192383 C232.3699353 190.66875031 232.35974365 191.61557678 232.34924316 192.59109497 C232.31910732 195.71313388 232.30984618 198.83486598 232.30078125 201.95703125 C232.28393503 204.12465943 232.26578487 206.29227783 232.24638367 208.45988464 C232.19887153 214.15950466 232.16906987 219.85908506 232.14294434 225.55883789 C232.11314507 231.37719549 232.06661252 237.19541655 232.02148438 243.01367188 C231.93543735 254.42570985 231.86809815 265.83777591 231.8125 277.25 C234.34348148 276.33024489 236.87152905 275.40348369 239.3984375 274.47265625 C240.10605225 274.21633423 240.81366699 273.96001221 241.54272461 273.69592285 C256.97436604 267.98559435 269.18039339 258.6307273 276.25 243.4375 C281.44472221 231.39413056 280.02592913 214.26176097 275.63916016 202.27929688 C269.34275018 186.8227819 260.20379286 173.76246882 248.921875 161.546875 C247.03350188 159.49064649 245.23269417 157.38713592 243.4375 155.25 C234.78551923 145.39854008 224.33371795 137.56563691 213.86132812 129.77685547 C212.04942531 128.42656469 210.25037388 127.06107506 208.453125 125.69140625 C162.2827942 91.40148984 105.97015064 72.46734155 49.95703125 62.265625 C49.01190674 62.09321289 48.06678223 61.92080078 47.09301758 61.74316406 C39.40803283 60.58787127 31.79391045 60.0863745 24.02734375 60.046875 C23.12738174 60.04117493 22.22741974 60.03547485 21.30018616 60.02960205 C19.4069229 60.02022383 17.51364384 60.01364696 15.62036133 60.00976562 C12.7811094 60.00010584 9.94259709 59.96903166 7.10351562 59.9375 C-4.35523009 59.87134788 -14.98355883 60.77700111 -26.1875 63.25 C-26.85039536 63.39509506 -27.51329071 63.54019012 -28.1962738 63.68968201 C-45.61261928 67.53987289 -62.04508241 74.87268698 -73.1875 89.25 C-73.5175 89.25 -73.8475 89.25 -74.1875 89.25 C-75.21694263 79.72765567 -69.93180159 70.46587548 -64.1875 63.25 C-50.64920349 46.97613018 -29.80384176 40.48277562 -9.34521484 38.47265625 C8.26665574 37.23081104 26.38177176 37.40620319 43.8125 40.25 C44.9890918 40.43304688 46.16568359 40.61609375 47.37792969 40.8046875 C112.47366697 50.98992026 176.81809577 75.58547659 229.8125 115.25 C230.34214355 115.64219727 230.87178711 116.03439453 231.41748047 116.43847656 C250.67194933 130.7231083 268.7151137 146.75993881 282.8125 166.25 C283.46992187 167.15685547 283.46992187 167.15685547 284.140625 168.08203125 C297.29167439 186.45482085 306.3980228 206.45956327 303.52734375 229.54296875 C303.10452724 231.53390084 302.52036977 233.3413459 301.8125 235.25 C301.49410156 236.17167969 301.17570312 237.09335937 300.84765625 238.04296875 C294.64934813 254.50918123 282.48165661 264.15021617 266.9765625 271.42578125 C255.89124154 276.40460599 244.05941032 280.33517158 231.8125 280.25 C231.90676202 284.66115618 232.01300762 289.07182045 232.12988281 293.48242188 C232.16792835 294.97973948 232.20282167 296.47714089 232.234375 297.97460938 C232.28056201 300.13962567 232.33846017 302.30407686 232.3984375 304.46875 C232.4298584 305.76748047 232.4612793 307.06621094 232.49365234 308.40429688 C232.88563612 313.13211342 233.38932465 318.19244737 236.14453125 322.17578125 C238.23706521 323.52343193 240.05829111 323.97746789 242.5 324.4375 C243.30824219 324.59605469 244.11648438 324.75460937 244.94921875 324.91796875 C245.87154297 325.08232422 245.87154297 325.08232422 246.8125 325.25 C246.8125 326.24 246.8125 327.23 246.8125 328.25 C228.3325 328.25 209.8525 328.25 190.8125 328.25 C191.1425 327.26 191.4725 326.27 191.8125 325.25 C193.5546875 324.546875 193.5546875 324.546875 195.6875 324 C199.26814155 322.77015532 199.67982556 322.47255067 201.75 319 C204.07791361 310.78383431 204.01965248 302.71907334 204.12890625 294.22265625 C204.15688293 292.434505 204.15688293 292.434505 204.1854248 290.61022949 C204.25347413 286.17772491 204.31378093 281.74510418 204.375 277.3125 C204.519375 267.391875 204.66375 257.47125 204.8125 247.25 C177.4225 247.58 150.0325 247.91 121.8125 248.25 C121.77125 257.180625 121.73 266.11125 121.6875 275.3125 C121.66929199 278.09953369 121.65108398 280.88656738 121.63232422 283.75805664 C120.13082775 303.54444821 120.13082775 303.54444821 125.71533203 321.56958008 C128.32428999 323.66008737 130.27294938 324.0300642 133.5625 324.5 C134.54734375 324.64953125 135.5321875 324.7990625 136.546875 324.953125 C137.66835938 325.10007812 137.66835938 325.10007812 138.8125 325.25 C138.8125 326.24 138.8125 327.23 138.8125 328.25 C136.15975027 329.57637487 134.2303334 329.32956818 131.26123047 329.27172852 C130.10017792 329.25163223 128.93912537 329.23153595 127.7428894 329.21083069 C126.48453278 329.18379562 125.22617615 329.15676056 123.9296875 329.12890625 C122.64514679 329.10529526 121.36060608 329.08168427 120.03713989 329.05735779 C116.62085149 328.99450505 113.20471559 328.92544189 109.78857422 328.85510254 C106.30313059 328.78442976 102.81757877 328.71960649 99.33203125 328.65429688 C92.4920699 328.52526927 85.65225181 328.38968312 78.8125 328.25 C79.1425 327.26 79.4725 326.27 79.8125 325.25 C82.05752744 324.5747029 84.2667267 324.30127407 86.5859375 323.97265625 C89.51848085 323.02086587 90.18555516 321.84124514 91.8125 319.25 C95.31026293 307.50200025 94.26274812 294.05818139 94.4375 281.9375 C94.4757564 279.73240774 94.51481234 277.5273292 94.5546875 275.32226562 C94.65132504 269.96492212 94.73154875 264.60769435 94.8125 259.25 C81.9425 259.25 69.0725 259.25 55.8125 259.25 C56.1425 257.6 56.4725 255.95 56.8125 254.25 C57.50332656 243.81314692 55.99103905 233.66612132 54.5 223.375 C54.26817689 221.72856737 54.03731003 220.08199983 53.80737305 218.43530273 C53.35369141 215.18963249 52.89642749 211.944501 52.43652344 208.69970703 C51.61974066 202.90992275 50.86719397 197.11225841 50.125 191.3125 C48.8423609 171.68470258 48.8423609 171.68470258 43.8125 153.25 C29.53946156 182.42272435 29.53946156 182.42272435 15.46484375 211.69140625 C12.47057144 217.97624091 9.45019181 224.24845455 6.42547607 230.51867676 C5.82215142 231.76957173 5.21914906 233.02062222 4.61651611 234.27185059 C3.22702167 237.15653294 1.83228845 240.03837717 0.42724609 242.91552734 C-0.6699971 245.18134947 -1.74446801 247.45831163 -2.79833984 249.74462891 C-3.31219238 250.83565918 -3.82604492 251.92668945 -4.35546875 253.05078125 C-4.80559326 254.02829346 -5.25571777 255.00580566 -5.71948242 256.01293945 C-7.1875 258.25 -7.1875 258.25 -9.36450195 259.07495117 C-9.96609131 259.13271729 -10.56768066 259.1904834 -11.1875 259.25 C-14.8099556 255.09358971 -17.20891879 250.69398642 -19.6796875 245.8125 C-20.10222809 244.9882402 -20.52476868 244.16398041 -20.96011353 243.31474304 C-22.33388242 240.62966072 -23.69866744 237.94014127 -25.0625 235.25 C-26.01360376 233.38253367 -26.96477616 231.51510229 -27.91601562 229.64770508 C-35.55686411 214.61648366 -42.99718001 199.50232276 -50.1875 184.25 C-50.63700012 183.2984906 -50.63700012 183.2984906 -51.09558105 182.32775879 C-52.96333029 178.37388256 -54.82468352 174.4170932 -56.67700195 170.45596313 C-57.26217151 169.20469331 -57.84825554 167.9538507 -58.43530273 166.70346069 C-59.23957929 164.98780061 -60.03791461 163.26935908 -60.8359375 161.55078125 C-61.29145996 160.57278564 -61.74698242 159.59479004 -62.21630859 158.5871582 C-63.1875 156.25 -63.1875 156.25 -63.1875 154.25 C-63.8475 154.25 -64.5075 154.25 -65.1875 154.25 C-65.22488281 155.17296875 -65.26226562 156.0959375 -65.30078125 157.046875 C-65.68192655 164.60999343 -66.36792887 172.00621035 -67.56640625 179.484375 C-69.22948783 190.21196394 -70.54241913 200.96994435 -71.8125 211.75 C-72.13701347 214.49918924 -72.46246916 217.24824882 -72.79110718 219.99694824 C-72.9927889 221.68391387 -73.19215999 223.37115793 -73.38882446 225.05871582 C-74.07799829 230.82562038 -74.07799829 230.82562038 -74.70541382 233.25720215 C-75.50632704 236.56793413 -75.45425934 239.9246421 -75.5 243.3125 C-75.52900391 244.03244141 -75.55800781 244.75238281 -75.58789062 245.49414062 C-75.65906177 249.73033562 -75.65906177 249.73033562 -73.43359375 253.171875 C-71.24975336 254.22011839 -69.30177977 254.92523938 -66.9375 255.4375 C-65.08125 255.8396875 -65.08125 255.8396875 -63.1875 256.25 C-63.5175 257.24 -63.8475 258.23 -64.1875 259.25 C-78.3775 259.25 -92.5675 259.25 -107.1875 259.25 C-107.6825 257.765 -107.6825 257.765 -108.1875 256.25 C-107.43984375 256.14945313 -106.6921875 256.04890625 -105.921875 255.9453125 C-104.93703125 255.75710938 -103.9521875 255.56890625 -102.9375 255.375 C-101.96296875 255.21257812 -100.9884375 255.05015625 -99.984375 254.8828125 C-95.54581736 252.29158751 -94.70822622 248.00433869 -93.1875 243.25 C-92.36215399 239.66046139 -91.82642613 236.06292055 -91.3359375 232.4140625 C-91.19096832 231.41345795 -91.04599915 230.41285339 -90.89663696 229.38192749 C-90.44019593 226.21449401 -90.00084026 223.04498384 -89.5625 219.875 C-89.26159559 217.75764462 -88.95952144 215.64045514 -88.65625 213.5234375 C-88.2175645 210.45971188 -87.77970164 207.39590227 -87.34675598 204.33135986 C-86.5222501 198.50578039 -85.63403637 192.69841328 -84.63476562 186.89990234 C-83.75646284 181.69624598 -83.01365685 176.47148477 -82.25 171.25 C-80.25704508 157.64367263 -80.25704508 157.64367263 -79.26171875 151.33203125 C-79.1217749 150.43548828 -78.98183105 149.53894531 -78.83764648 148.61523438 C-78.58035315 146.9738316 -78.31851901 145.33313073 -78.05102539 143.69335938 C-76.46098752 134.56479848 -76.46098752 134.56479848 -79.0234375 125.92578125 C-79.85669519 124.79491955 -80.70391345 123.67425343 -81.5625 122.5625 C-85.93238276 116.47370724 -89.41677223 110.2088905 -92.625 103.4375 C-93.03733887 102.57874268 -93.44967773 101.71998535 -93.87451172 100.83520508 C-96.54408042 95.10361356 -98.53814886 89.34983493 -100.1875 83.25 C-100.40059814 82.47309814 -100.61369629 81.69619629 -100.83325195 80.89575195 C-104.71144973 65.98242989 -102.92190078 50.50096047 -95.5 37.125 C-84.22992879 19.64660172 -66.6877854 9.90597542 -46.9375 4.5 C-46.22440674 4.30116211 -45.51131348 4.10232422 -44.77661133 3.89746094 C-30.10183989 0.15043729 -15.04857317 -0.09407749 0 0 Z " fill="#19164E" transform="translate(202.1875,40.75)"/>
<path d="M0 0 C0.90179993 0.00343414 1.80359985 0.00686829 2.73272705 0.01040649 C39.52979755 0.17449373 76.08370449 6.16886068 110.83007812 18.55224609 C112.91044511 19.28447378 114.99984454 19.98326078 117.09375 20.67578125 C135.79196197 26.88654418 153.90625929 34.03332205 171.8125 42.25 C172.72483398 42.66362793 173.63716797 43.07725586 174.57714844 43.50341797 C188.78537285 49.96193845 202.35927814 57.34715722 215.8125 65.25 C216.7907373 65.82298828 217.76897461 66.39597656 218.77685547 66.98632812 C231.97254619 74.75488145 244.5891485 83.02892888 256.8125 92.25 C257.40708008 92.6929541 258.00166016 93.1359082 258.61425781 93.59228516 C278.04229424 108.06600548 297.49128175 124.50374164 312.6015625 143.484375 C314.04524345 145.29025153 315.51836137 147.07308923 317.0234375 148.828125 C335.15970932 170.08256285 349.80409577 197.6930864 347.8125 226.25 C345.89649311 239.9233219 339.21233329 253.13085835 328.8125 262.25 C304.8861285 280.23865339 274.24589268 286.29154863 244.8125 285.25 C244.8125 284.92 244.8125 284.59 244.8125 284.25 C245.40973877 284.16548584 246.00697754 284.08097168 246.62231445 283.99389648 C270.09038453 280.56758967 295.76216645 274.51091286 310.8828125 254.51171875 C320.33599097 240.2132919 321.90944177 224.00784172 318.61328125 207.34765625 C312.77098904 184.74796003 299.54139366 165.50723276 283.8984375 148.51953125 C281.97095324 146.4223995 280.10488643 144.28623645 278.25 142.125 C272.27770049 135.28575379 265.76523005 129.08026736 258.8125 123.25 C258.27657227 122.80027832 257.74064453 122.35055664 257.18847656 121.88720703 C217.09047146 88.39268627 171.46921123 64.66898486 122.8125 46.25 C121.82588379 45.87327148 120.83926758 45.49654297 119.82275391 45.10839844 C98.82255036 37.1505091 77.01468259 31.98604557 54.8359375 28.61962891 C52.8125 28.25 52.8125 28.25 49.8125 27.25 C36.86525113 25.51329231 23.97457159 24.90277863 10.92089844 24.93432617 C8.18124252 24.93750727 5.44265063 24.91381186 2.703125 24.88867188 C-12.01609415 24.83503869 -26.60242527 26.0334682 -40.5625 31.0625 C-41.30306641 31.32111816 -42.04363281 31.57973633 -42.80664062 31.84619141 C-61.31262817 38.48246105 -73.88462253 48.09762991 -82.671875 65.65234375 C-89.62363568 82.15381692 -86.39518658 99.14253075 -79.85791016 115.22583008 C-78.03331166 120.59798563 -78.03331166 120.59798563 -74.1875 124.25 C-74.1875 124.91 -74.1875 125.57 -74.1875 126.25 C-76.1675 126.745 -76.1675 126.745 -78.1875 127.25 C-94.40829571 106.35632605 -104.8168441 80.95636341 -102.1875 54.25 C-99.37370914 39.91079458 -90.23995754 26.83450491 -78.22192383 18.65356445 C-68.39211894 12.2989567 -58.23574077 7.59251288 -46.9375 4.5 C-46.22440674 4.30116211 -45.51131348 4.10232422 -44.77661133 3.89746094 C-30.10183989 0.15043729 -15.04857317 -0.09407749 0 0 Z " fill="#19164E" transform="translate(202.1875,40.75)"/>
<path d="M0 0 C1.1765918 0.18304688 2.35318359 0.36609375 3.56542969 0.5546875 C68.66116697 10.73992026 133.00559577 35.33547659 186 75 C186.52964355 75.39219727 187.05928711 75.78439453 187.60498047 76.18847656 C206.85944933 90.4731083 224.9026137 106.50993881 239 126 C239.65742187 126.90685547 239.65742187 126.90685547 240.328125 127.83203125 C253.47917439 146.20482085 262.5855228 166.20956327 259.71484375 189.29296875 C259.29202724 191.28390084 258.70786977 193.0913459 258 195 C257.68160156 195.92167969 257.36320312 196.84335937 257.03515625 197.79296875 C250.83684813 214.25918123 238.66915661 223.90021617 223.1640625 231.17578125 C212.14610691 236.12434973 200.19453475 240.23868306 188 240 C186.43001166 236.86002332 186.87055455 233.50823639 186.88647461 230.06201172 C186.88632858 229.24241974 186.88618256 228.42282776 186.8860321 227.57839966 C186.88673026 224.8621356 186.89451812 222.14593962 186.90234375 219.4296875 C186.90420827 217.54924558 186.90563202 215.66880317 186.90663147 213.7883606 C186.91045393 208.83338078 186.92028192 203.87843017 186.93133545 198.92346191 C186.94155539 193.86955155 186.94613034 188.81563647 186.95117188 183.76171875 C186.96190441 173.84113299 186.9789776 163.92056892 187 154 C187.33 154 187.66 154 188 154 C188 181.39 188 208.78 188 237 C207.63131616 229.63825644 223.33003452 222.76027128 232.4375 203.1875 C237.63222221 191.14413056 236.21342913 174.01176097 231.82666016 162.02929688 C225.53025018 146.5727819 216.39129286 133.51246882 205.109375 121.296875 C203.22100188 119.24064649 201.42019417 117.13713592 199.625 115 C190.97301923 105.14854008 180.52121795 97.31563691 170.04882812 89.52685547 C168.23692531 88.17656469 166.43787388 86.81107506 164.640625 85.44140625 C118.4702942 51.15148984 62.15765064 32.21734155 6.14453125 22.015625 C4.72684448 21.75700684 4.72684448 21.75700684 3.28051758 21.49316406 C-4.40446717 20.33787127 -12.01858955 19.8363745 -19.78515625 19.796875 C-20.68511826 19.79117493 -21.58508026 19.78547485 -22.51231384 19.77960205 C-24.4055771 19.77022383 -26.29885616 19.76364696 -28.19213867 19.75976562 C-31.0313906 19.75010584 -33.86990291 19.71903166 -36.70898438 19.6875 C-48.16773009 19.62134788 -58.79605883 20.52700111 -70 23 C-70.66289536 23.14509506 -71.32579071 23.29019012 -72.0087738 23.43968201 C-89.42511928 27.28987289 -105.85758241 34.62268698 -117 49 C-117.33 49 -117.66 49 -118 49 C-119.02944263 39.47765567 -113.74430159 30.21587548 -108 23 C-94.46170349 6.72613018 -73.61634176 0.23277562 -53.15771484 -1.77734375 C-35.54584426 -3.01918896 -17.43072824 -2.84379681 0 0 Z " fill="#686869" transform="translate(246,81)"/>
<path d="M0 0 C0.33 0.66 0.66 1.32 1 2 C-4.01608525 3.0176403 -8.78608306 3.11856434 -13.875 3.0625 C-14.65875 3.05798828 -15.4425 3.05347656 -16.25 3.04882812 C-18.16670014 3.03714093 -20.08336048 3.01920908 -22 3 C-22 2.67 -22 2.34 -22 2 C-19.08483516 1.46915208 -16.16839443 0.95000945 -13.25 0.4375 C-12.425 0.28603516 -11.6 0.13457031 -10.75 -0.02148438 C-9.95078125 -0.16005859 -9.1515625 -0.29863281 -8.328125 -0.44140625 C-7.5949707 -0.57232666 -6.86181641 -0.70324707 -6.10644531 -0.83813477 C-3.79610324 -1.01566801 -2.17190046 -0.79981566 0 0 Z " fill="#525176" transform="translate(469,323)"/>
</svg>
